<?xml version="1.0" encoding="utf-8"?>
<!-- Generator: Adobe Illustrator 22.1.0, SVG Export Plug-In . SVG Version: 6.00 Build 0)  -->
<svg version="1.1" id="图层_1" xmlns="http://www.w3.org/2000/svg" xmlns:xlink="http://www.w3.org/1999/xlink" x="0px" y="0px"
	 viewBox="0 0 288 560" style="enable-background:new 0 0 288 560;" xml:space="preserve">
<style type="text/css">
	.st0{fill:#FFFFFF;}
	.st1{fill:#9C3A3A;}
</style>
<g>
	<path class="st0" d="M154.2,294.5c-11.7,0-23.5,0-35.3,0c0-12.9,0-25.9,0-38.9c11.7,0,23.5,0,35.3,0
		C154.2,268.6,154.2,281.5,154.2,294.5z M151.7,282.2C151.7,282.2,151.7,282.2,151.7,282.2c0-3.2-0.1-6.4,0-9.6
		c0-3.7,0.1-7.5,0.2-11.2c0-1.3-0.2-1.6-1.5-1.7c-5.2-0.1-10.5-0.1-15.7-0.2c-2.3,0-4.7-0.1-7-0.1c-1.3,0-2.6,0-4,0.1
		c-0.9,0-1.4,0.5-1.4,1.4c0,2-0.1,3.9-0.2,5.9c0,1.4-0.2,2.9-0.2,4.3c0.1,2.9,0.3,5.9,0.3,8.8c0,2.7-0.1,5.4-0.2,8.1
		c0,1.1,0.5,1.4,1.5,1.4c1.2-0.1,2.5-0.2,3.7-0.1c3.6,0,7.2,0.1,10.7,0.1c1.5,0,3.1-0.1,4.6-0.1c2.5,0,5.1,0.1,7.6,0.2
		c1.1,0,1.5-0.5,1.5-1.6C151.7,286,151.7,284.1,151.7,282.2z"/>
	<path class="st1" d="M151.7,282.2c0,1.9,0,3.8,0,5.7c0,1.1-0.4,1.6-1.5,1.6c-2.5-0.1-5.1-0.2-7.6-0.2c-1.5,0-3.1,0.1-4.6,0.1
		c-3.6,0-7.2-0.1-10.7-0.1c-1.2,0-2.5,0.1-3.7,0.1c-1,0.1-1.5-0.3-1.5-1.4c0.1-2.7,0.2-5.4,0.2-8.1c0-2.9-0.2-5.9-0.3-8.8
		c0-1.4,0.1-2.9,0.2-4.3c0.1-2,0.1-3.9,0.2-5.9c0-0.9,0.6-1.4,1.4-1.4c1.3-0.1,2.6-0.1,4-0.1c2.3,0,4.7,0.1,7,0.1
		c5.2,0.1,10.5,0.1,15.7,0.2c1.4,0,1.6,0.3,1.5,1.7c-0.1,3.7-0.2,7.5-0.2,11.2C151.7,275.8,151.7,279,151.7,282.2
		C151.7,282.2,151.7,282.2,151.7,282.2z M127.2,268.4c0.6-0.1,1.2-0.1,1.7-0.2c0.8-0.2,1.5-0.5,2.3-0.7c-0.4,0.4-0.8,0.8-1.3,1.3
		c0.3,0.1,0.5,0.2,0.5,0.2c1.7-0.8,3.5-1.7,5.2-2.6c0.2-0.1,0.2-0.6,0.4-1.2c-1.7,0.8-3.2,1.5-4.6,2.2c1.4-0.9,2.9-1.8,4.3-2.8
		c0.4-0.2,0.6-0.7,0.9-1c-0.6-0.4-0.4-1.5-1.6-1.4c-3,0.1-6.1,0-9.1,0.1c-0.4,0-1,0.5-1,0.8c-0.1,3-0.1,6-0.1,9
		c0,0.4,0.2,0.9,0.3,1.3c0.1,0,0.3,0,0.4,0c0.1-0.6,0.3-1.3,0.3-1.9c0.1-2.3,0.1-4.7,0.1-7c0-0.8,0.3-1,1.1-1
		c1.1,0.1,2.2,0.1,3.2,0.1c1.7,0,3.4,0,5.1,0c-1.9,1.3-3.9,2.3-5.9,3.4C128.6,267.3,127.9,267.9,127.2,268.4
		c-0.2,0.4-0.6,0.8-0.6,1.2c-0.1,3.5-0.1,7.1-0.1,10.6c0,0.3,0.1,0.6,0.2,0.9c0.1,0,0.3,0,0.4,0.1c0.2-0.5,0.4-0.9,0.4-1.4
		c0.1-2.2,0.1-4.5,0-6.7C127.5,271.4,127.3,269.9,127.2,268.4z M143.3,270.3c-1.8-1-3.5-1.9-5.3-2.9c0.6-0.4,1.3-1,2.3-1.8
		c-1.6-0.4-2.3,0.7-3.3,1c0.1-0.8,0.5-1.6-0.4-2.3c-0.2,0.7-0.3,1.4-0.3,2.1c0,0.1,0.4,0.1,0.7,0.2c-0.4,0.9-1.2,1.2-2.1,1.2
		c-3.5-0.1-7.6,4.3-6.9,7.5c0.4,1.9,0.5,3.9,0.7,5.8c-0.2,0-0.7-0.1-1.2-0.1c0,0.1,0,0.3-0.1,0.4c2.4,1.6,4.7,3.6,7.8,3.9
		c0.1-0.1,0.2-0.3,0.2-0.4c-0.8-0.5-1.6-1-2.6-1.5c3.4-0.4,6.6-0.4,9.5-2.9C144.9,278.4,146.5,272.7,143.3,270.3
		c1,0.4,1.8-0.2,2.3-1.8C144.6,268.9,143.8,269.3,143.3,270.3z M146.1,281.8c0-0.1-0.1-0.3-0.1-0.4c-0.5,0-1-0.1-1.4,0
		c-1.8,0.8-3.6,1.6-5.3,2.6c-0.9,0.5-1.5,1.3-2.5,2.2c0.6,0.1,0.9,0.2,1.2,0.2c2,0,4,0,6,0c1.3,0,2.6,0.1,4,0c0.4,0,1-0.5,1-0.7
		c0.1-2.8,0.1-5.6,0-8.4c0-0.4-0.4-0.8-0.7-1.2c-0.2,0.1-0.4,0.1-0.5,0.2c0,2.6,0,5.1,0,7.7c0,1-0.4,1.3-1.3,1.3c-2.1,0-4.3,0-6.5,0
		C142,284,144,282.9,146.1,281.8z M148.2,275.8c0.2,0,0.3-0.1,0.5-0.1c0.1-0.9,0.2-1.9,0.2-2.8c0-3.1-0.1-6.2,0-9.3
		c0-1-0.3-1.3-1.2-1.3c-2.2,0-4.4,0-6.6,0c-0.3,0-0.6,0.2-0.9,0.2c2.4,1.4,5,0.7,7.6,1c0,0.4,0,0.7,0,1.1c0,3-0.1,6,0,9
		C147.7,274.4,148,275.1,148.2,275.8z M125.7,274.2c-0.2,0-0.4,0-0.6,0c-0.1,0.4-0.3,0.9-0.3,1.3c0,3.2,0,6.3-0.1,9.5
		c0,1.2,0.5,1.5,1.6,1.5c3,0,6.1,0,9.1,0c0.4,0,0.8-0.2,1.2-0.3c0-0.2,0-0.3,0-0.5c-3.5-0.6-7-0.4-10.7-0.3c0-2,0-3.9,0-5.7
		C125.8,277.9,125.8,276,125.7,274.2z M137.4,263.3c-0.1,0.2-0.1,0.3-0.2,0.5c2.6,1.4,5.3,2.8,7.9,4.2c0.5,0.3,0.9,0.4,0.9,1.2
		c-0.1,3.5-0.2,7.1-0.2,10.6c0,0.4,0.4,0.8,0.6,1.2c0.2-0.4,0.5-0.7,0.5-1.1c0.1-3.2,0-6.3,0.1-9.5c0-1.7-0.6-2.8-2.2-3.5
		c-1.3-0.6-2.5-1.4-3.8-2.1C139.8,264.2,138.6,263.8,137.4,263.3z M126.9,267.3c1.5-0.7,2.9-1.4,4.3-2.1c0.2-0.1,0.3-0.5,0.5-0.7
		c-0.3-0.1-0.5-0.4-0.8-0.4c-1.2,0-2.4,0.1-3.6,0.2c-0.2,0-0.4,0.3-0.5,0.5c0.2,0.1,0.4,0.4,0.6,0.4c0.4,0,0.8-0.1,1.2-0.1
		C128.2,265.9,126.5,265.6,126.9,267.3z M146.1,265.3c-1.5,0.1-2.6-1.4-4.2-0.7c1.6,0.9,3.1,1.8,4.7,2.6c0.1-0.1,0.3-0.2,0.4-0.3
		c-0.1-0.9-0.1-1.9-0.5-2.7c-0.1-0.2-1.2-0.1-1.8-0.1c0,0.1,0,0.2,0,0.3C145.1,264.7,145.6,265,146.1,265.3z M127.9,282.2
		c-0.1,0.1-0.2,0.2-0.3,0.3c0.1,0.4,0.2,0.7,0.3,1.1c-0.1,0-0.2,0.1-0.3,0.1c-0.3-0.5-0.5-1-0.8-1.5c-0.1,0-0.2,0-0.3,0.1
		c0,0.5-0.2,1-0.1,1.5c0.1,0.3,0.4,0.8,0.7,0.8c1.1,0.1,2.1,0,3.2,0c0-0.1,0.1-0.2,0.1-0.3C129.6,283.6,128.8,282.9,127.9,282.2z
		 M143.1,284.3c0,0.1,0.1,0.2,0.1,0.3c1.1,0.1,2.1,0.1,3.2,0.2c0.2,0,0.4-0.3,0.6-0.4c-0.2-0.2-0.3-0.4-0.5-0.6
		c-0.2-0.1-0.4-0.1-0.6-0.2c0.4-0.5,0.6-0.9,0.9-1.2c-0.1-0.1-0.3-0.3-0.4-0.4C145.3,282.8,144.2,283.6,143.1,284.3z M144.2,268.5
		c-1.3-0.7-2.5-1.4-3.8-2.1C141.2,268.3,143.3,269.4,144.2,268.5z M136.9,262.5c0,0.1,0,0.3,0,0.4c0.8,0,1.7,0,2.5,0
		c0-0.1,0-0.3,0-0.4C138.6,262.5,137.7,262.5,136.9,262.5z M136.5,285.5c0.3-0.1,0.5-0.1,0.8-0.2c-0.2-0.6-0.3-1.1-0.5-1.7
		c-0.2,0.1-0.7,0.2-0.6,0.3C136.2,284.5,136.4,285,136.5,285.5z M127.9,268.8c-0.1,0.1-0.2,0.2-0.3,0.3c0.3,0.3,0.6,0.7,1,1
		c0.2,0.1,0.5,0,0.8,0c-0.1-0.3-0.1-0.6-0.3-0.8C128.8,269.1,128.3,269,127.9,268.8z"/>
	<path class="st0" d="M137.1,266.7c1-0.4,1.7-1.5,3.3-1c-1,0.7-1.7,1.3-2.3,1.8c1.8,1,3.5,1.9,5.3,2.9l0,0c3.2,2.5,1.6,8.1-0.9,10.2
		c-2.9,2.5-6,2.5-9.5,2.9c1,0.6,1.8,1.1,2.6,1.5c-0.1,0.1-0.2,0.3-0.2,0.4c-3.1-0.3-5.4-2.2-7.8-3.9c0-0.1,0-0.3,0.1-0.4
		c0.5,0,1,0.1,1.2,0.1c-0.2-1.9-0.3-3.9-0.7-5.8c-0.6-3.2,3.5-7.7,6.9-7.5C135.9,267.9,136.7,267.6,137.1,266.7L137.1,266.7z
		 M130,280.2c0.6,0.5,1.1,1.2,1.7,1.4c1.3,0.3,2.8,0.4,4.1,0.4c3.3-0.2,5.9-1.3,7.4-4.5c1.2-2.6,0.9-4.4-1.1-6.4
		c-1.4-1.3-3.1-1.6-4.8-2.1c-0.2-0.1-0.6,0.2-0.7,0.5c-0.2,0.4-0.1,0.8-0.2,1.5c0.7-0.2,1.2-0.4,1.8-0.5c0.3-0.1,0.7,0,1.1,0.1
		c-0.2,0.3-0.3,0.8-0.6,1c-1.5,0.9-3.1,1-4.8,0.4c-0.5-0.2-0.9-0.7-1.3-1.1c0.1-0.1,0.1-0.2,0.2-0.3c0.8,0.2,1.7,0.4,2.7,0.6
		c0-0.9,0-1.6,0-2.2c-3.3,0.6-6.1,3.3-6.1,5.9c1,0,2,0,3,0c1.2,0,1.6,0.4,1.5,1.6C133.8,278.3,132.6,279.4,130,280.2z M132.8,275.6
		c-1.2,0-2.3,0-3.4,0c-0.1,1.8,0.4,2.9,1.2,3C131.8,278.6,132.5,277.5,132.8,275.6z"/>
	<path class="st0" d="M146.1,281.8c-2,1.1-4,2.2-6.1,3.3c2.2,0,4.4,0,6.5,0c0.9,0,1.3-0.3,1.3-1.3c-0.1-2.6,0-5.1,0-7.7
		c0.2-0.1,0.4-0.1,0.5-0.2c0.2,0.4,0.7,0.8,0.7,1.2c0.1,2.8,0,5.6,0,8.4c0,0.3-0.6,0.7-1,0.7c-1.3,0.1-2.6,0-4,0c-2,0-4,0-6,0
		c-0.3,0-0.5-0.1-1.2-0.2c1-0.9,1.6-1.7,2.5-2.2c1.7-1,3.5-1.8,5.3-2.6c0.4-0.2,0.9,0,1.4,0C146,281.5,146,281.7,146.1,281.8z"/>
	<path class="st0" d="M131.1,267.4c-0.8,0.2-1.5,0.5-2.3,0.7c-0.6,0.1-1.1,0.2-1.7,0.2c0,0,0,0,0,0c0.7-0.5,1.5-1.1,2.2-1.5
		c2-1.1,4-2.1,5.9-3.4c-1.7,0-3.4,0-5.1,0c-1.1,0-2.2,0-3.2-0.1c-0.8,0-1.1,0.2-1.1,1c0,2.3,0,4.7-0.1,7c0,0.6-0.2,1.3-0.3,1.9
		c-0.1,0-0.3,0-0.4,0c-0.1-0.4-0.3-0.9-0.3-1.3c0-3,0-6,0.1-9c0-0.3,0.6-0.8,1-0.8c3-0.1,6.1,0,9.1-0.1c1.2-0.1,1,1,1.6,1.4
		c-0.3,0.3-0.5,0.8-0.9,1c-1.4,1-2.9,1.9-4.3,2.8C131.3,267.4,131.2,267.4,131.1,267.4z"/>
	<path class="st0" d="M148.2,275.8c-0.2-0.7-0.6-1.4-0.6-2.1c-0.1-3,0-6,0-9c0-0.3,0-0.6,0-1.1c-2.5-0.3-5.2,0.4-7.6-1
		c0.3-0.1,0.6-0.2,0.9-0.2c2.2,0,4.4,0,6.6,0c0.9,0,1.3,0.3,1.2,1.3c-0.1,3.1,0,6.2,0,9.3c0,0.9-0.1,1.9-0.2,2.8
		C148.6,275.7,148.4,275.8,148.2,275.8z"/>
	<path class="st0" d="M125.7,274.2c0,1.8,0.1,3.7,0.1,5.5c0,1.8,0,3.7,0,5.7c3.6,0,7.2-0.3,10.7,0.3c0,0.2,0,0.3,0,0.5
		c-0.4,0.1-0.8,0.3-1.2,0.3c-3,0-6.1,0-9.1,0c-1.1,0-1.6-0.3-1.6-1.5c0.1-3.2,0.1-6.3,0.1-9.5c0-0.4,0.2-0.9,0.3-1.3
		C125.3,274.2,125.5,274.2,125.7,274.2z"/>
	<path class="st0" d="M137.4,263.3c1.2,0.5,2.4,0.9,3.6,1.5c1.3,0.6,2.5,1.5,3.8,2.1c1.6,0.7,2.3,1.8,2.2,3.5c0,3.2,0,6.3-0.1,9.5
		c0,0.4-0.4,0.7-0.5,1.1c-0.2-0.4-0.6-0.8-0.6-1.2c0-3.5,0.1-7.1,0.2-10.6c0-0.8-0.4-0.9-0.9-1.2c-2.6-1.4-5.3-2.8-7.9-4.2
		C137.2,263.7,137.3,263.5,137.4,263.3z"/>
	<path class="st0" d="M127.2,268.4c0.1,1.5,0.3,3,0.3,4.5c0.1,2.2,0,4.5,0,6.7c0,0.5-0.3,0.9-0.4,1.4c-0.1,0-0.3,0-0.4-0.1
		c-0.1-0.3-0.2-0.6-0.2-0.9c0-3.5,0-7.1,0.1-10.6C126.6,269.2,127,268.8,127.2,268.4C127.2,268.4,127.2,268.4,127.2,268.4z"/>
	<path class="st0" d="M126.9,267.3c-0.4-1.7,1.3-1.4,1.8-2.3c-0.4,0-0.8,0.1-1.2,0.1c-0.2,0-0.4-0.2-0.6-0.4
		c0.2-0.2,0.3-0.5,0.5-0.5c1.2-0.1,2.4-0.2,3.6-0.2c0.3,0,0.5,0.3,0.8,0.4c-0.2,0.3-0.3,0.6-0.5,0.7
		C129.8,265.9,128.4,266.6,126.9,267.3z"/>
	<path class="st0" d="M146.1,265.3c-0.5-0.3-0.9-0.6-1.4-0.9c0-0.1,0-0.2,0-0.3c0.6,0,1.7-0.1,1.8,0.1c0.3,0.8,0.3,1.8,0.5,2.7
		c-0.1,0.1-0.3,0.2-0.4,0.3c-1.6-0.9-3.1-1.8-4.7-2.6C143.5,263.9,144.6,265.4,146.1,265.3z"/>
	<path class="st0" d="M131.1,267.4c0.1,0,0.2,0,0.3-0.1c1.4-0.7,2.9-1.4,4.6-2.2c-0.2,0.6-0.2,1.1-0.4,1.2c-1.7,0.9-3.4,1.7-5.2,2.6
		c-0.1,0-0.2-0.1-0.5-0.2C130.3,268.2,130.7,267.8,131.1,267.4z"/>
	<path class="st0" d="M127.9,282.2c0.8,0.7,1.7,1.4,2.5,2.1c0,0.1-0.1,0.2-0.1,0.3c-1.1,0-2.1,0.1-3.2,0c-0.3,0-0.6-0.5-0.7-0.8
		c-0.1-0.5,0-1,0.1-1.5c0.1,0,0.2,0,0.3-0.1c0.3,0.5,0.5,1,0.8,1.5c0.1,0,0.2-0.1,0.3-0.1c-0.1-0.4-0.2-0.7-0.3-1.1
		C127.7,282.4,127.8,282.3,127.9,282.2z"/>
	<path class="st0" d="M143.1,284.3c1.1-0.8,2.2-1.5,3.4-2.3c0.1,0.1,0.3,0.3,0.4,0.4c-0.3,0.4-0.6,0.8-0.9,1.2c0.2,0,0.5,0,0.6,0.2
		c0.2,0.1,0.3,0.4,0.5,0.6c-0.2,0.1-0.4,0.4-0.6,0.4c-1.1,0-2.1-0.1-3.2-0.2C143.2,284.5,143.1,284.4,143.1,284.3z"/>
	<path class="st0" d="M144.2,268.5c-1,0.9-3.1-0.2-3.8-2.1C141.7,267.1,142.9,267.8,144.2,268.5z"/>
	<path class="st0" d="M143.3,270.3c0.4-1,1.2-1.4,2.3-1.8C145.2,270.1,144.3,270.7,143.3,270.3C143.3,270.3,143.3,270.3,143.3,270.3
		z"/>
	<path class="st0" d="M137.1,266.7c-0.2-0.1-0.7-0.1-0.7-0.2c0-0.7,0.1-1.4,0.3-2.1C137.6,265.1,137.2,265.9,137.1,266.7
		C137.1,266.7,137.1,266.7,137.1,266.7z"/>
	<path class="st0" d="M136.9,262.5c0.8,0,1.7,0,2.5,0c0,0.1,0,0.3,0,0.4c-0.8,0-1.7,0-2.5,0C136.9,262.8,136.9,262.7,136.9,262.5z"
		/>
	<path class="st0" d="M136.5,285.5c-0.1-0.5-0.3-1.1-0.3-1.6c0-0.1,0.4-0.2,0.6-0.3c0.2,0.6,0.3,1.1,0.5,1.7
		C137,285.4,136.7,285.4,136.5,285.5z"/>
	<path class="st0" d="M127.9,268.8c0.4,0.2,0.9,0.3,1.2,0.5c0.2,0.1,0.2,0.5,0.3,0.8c-0.3,0-0.6,0.2-0.8,0c-0.4-0.3-0.7-0.6-1-1
		C127.7,269,127.8,268.9,127.9,268.8z"/>
	<path class="st1" d="M130,280.2c2.6-0.8,3.8-1.9,3.9-3.9c0.1-1.2-0.3-1.6-1.5-1.6c-1,0-2,0-3,0c0-2.6,2.9-5.4,6.1-5.9
		c0,0.7,0,1.3,0,2.2c-1-0.2-1.8-0.4-2.7-0.6c-0.1,0.1-0.1,0.2-0.2,0.3c0.4,0.4,0.8,1,1.3,1.1c1.6,0.5,3.3,0.5,4.8-0.4
		c0.3-0.2,0.4-0.7,0.6-1c-0.4,0-0.7-0.1-1.1-0.1c-0.5,0.1-1,0.3-1.8,0.5c0.1-0.6,0.1-1.1,0.2-1.5c0.1-0.2,0.6-0.5,0.7-0.5
		c1.7,0.6,3.4,0.8,4.8,2.1c2.1,2,2.4,3.8,1.1,6.4c-1.5,3.2-4.2,4.4-7.4,4.5c-1.4,0.1-2.8,0-4.1-0.4
		C131.1,281.5,130.6,280.7,130,280.2z M143.1,274.4c-1.4,0-2.8-0.1-4.2,0c-2,0.1-2.5,1-2,2.9c0.1,0.5,0.4,0.9,0.6,1.3
		c0.8,1.3,1.7,1.5,3.1,1C142.4,278.9,143.4,277,143.1,274.4z"/>
	<path class="st1" d="M132.8,275.6c-0.2,2-1,3-2.1,3c-0.8,0-1.3-1.2-1.2-3C130.5,275.6,131.6,275.6,132.8,275.6z"/>
	<path class="st0" d="M143.1,274.4c0.2,2.7-0.7,4.6-2.5,5.2c-1.4,0.5-2.3,0.2-3.1-1c-0.3-0.4-0.5-0.8-0.6-1.3c-0.5-1.9,0-2.8,2-2.9
		C140.3,274.3,141.7,274.4,143.1,274.4z M141.8,275.5c-1.3-0.1-2.6-0.2-3.9-0.2c-0.2,1.6,0.6,3.1,1.5,3.2
		C140.8,278.6,141.9,277.3,141.8,275.5z"/>
	<path class="st1" d="M141.8,275.5c0.1,1.7-1.1,3.1-2.3,3c-0.9-0.1-1.7-1.6-1.5-3.2C139.2,275.4,140.5,275.5,141.8,275.5z"/>
</g>
</svg>
