<?xml version="1.0" encoding="utf-8"?>
<!-- Generator: Adobe Illustrator 22.1.0, SVG Export Plug-In . SVG Version: 6.00 Build 0)  -->
<svg version="1.1" id="图层_1" xmlns="http://www.w3.org/2000/svg" xmlns:xlink="http://www.w3.org/1999/xlink" x="0px" y="0px"
	 viewBox="0 0 42.5 42.5" style="enable-background:new 0 0 42.5 42.5;" xml:space="preserve">
<style type="text/css">
	.st0{fill:#9C3A3A;}
	.st1{fill:#FFFFFF;}
</style>
<g>
	<path class="st0" d="M36.7,29.4c0,2,0,3.9,0,5.9c0,1.1-0.4,1.7-1.6,1.6c-2.6-0.1-5.3-0.2-7.9-0.2c-1.6,0-3.2,0.1-4.8,0.1
		c-3.7,0-7.5-0.1-11.2-0.1c-1.3,0-2.6,0.1-3.9,0.2c-1,0.1-1.6-0.3-1.5-1.4C5.9,32.6,6,29.8,6,27c0-3.1-0.3-6.1-0.3-9.2
		c0-1.5,0.1-3,0.2-4.5c0.1-2,0.1-4.1,0.2-6.1c0-1,0.6-1.5,1.5-1.5c1.4-0.1,2.7-0.1,4.1-0.1c2.4,0,4.9,0.1,7.3,0.1
		c5.4,0.1,10.9,0.1,16.3,0.2c1.4,0,1.6,0.3,1.6,1.7c-0.1,3.9-0.2,7.8-0.2,11.7C36.6,22.7,36.6,26,36.7,29.4
		C36.7,29.4,36.7,29.4,36.7,29.4z M11.1,15c0.6-0.1,1.2-0.1,1.8-0.3c0.8-0.2,1.6-0.5,2.4-0.8c-0.4,0.4-0.8,0.8-1.3,1.3
		c0.3,0.1,0.5,0.2,0.6,0.2c1.8-0.9,3.6-1.7,5.4-2.7c0.2-0.1,0.2-0.6,0.4-1.2c-1.8,0.9-3.3,1.6-4.8,2.3c1.5-1,3-1.9,4.5-2.9
		c0.4-0.3,0.6-0.7,0.9-1.1c-0.6-0.4-0.4-1.5-1.7-1.5c-3.2,0.1-6.4,0-9.5,0.1c-0.4,0-1,0.6-1,0.9c-0.1,3.1-0.1,6.3-0.1,9.4
		c0,0.5,0.2,0.9,0.3,1.4c0.1,0,0.3,0,0.4,0c0.1-0.7,0.3-1.3,0.3-2c0.1-2.4,0.1-4.9,0.1-7.3c0-0.9,0.3-1.1,1.1-1.1
		c1.1,0.1,2.3,0.1,3.4,0.1c1.8,0,3.5,0,5.3,0c-2,1.3-4.1,2.4-6.1,3.5C12.6,13.9,11.9,14.5,11.1,15c-0.2,0.4-0.6,0.8-0.6,1.2
		c-0.1,3.7-0.1,7.4-0.1,11.1c0,0.3,0.1,0.6,0.2,0.9c0.1,0,0.3,0,0.4,0.1c0.2-0.5,0.5-1,0.5-1.5c0.1-2.3,0.1-4.7,0-7
		C11.4,18.1,11.2,16.6,11.1,15z M27.9,17c-1.8-1-3.7-2-5.5-3c0.6-0.5,1.4-1,2.4-1.8c-1.6-0.4-2.4,0.7-3.4,1.1
		c0.2-0.8,0.5-1.7-0.4-2.4c-0.2,0.7-0.3,1.5-0.3,2.2c0,0.1,0.5,0.1,0.7,0.2c-0.4,0.9-1.2,1.2-2.2,1.2c-3.6-0.1-7.9,4.5-7.2,7.8
		c0.4,2,0.5,4.1,0.7,6c-0.2,0-0.7-0.1-1.3-0.1c0,0.1,0,0.3-0.1,0.4c2.5,1.7,4.9,3.7,8.1,4.1c0.1-0.1,0.2-0.3,0.2-0.4
		c-0.8-0.5-1.7-1-2.7-1.6c3.6-0.4,6.9-0.4,9.9-3C29.6,25.4,31.3,19.5,27.9,17c1,0.4,1.9-0.2,2.4-1.8C29.2,15.5,28.4,15.9,27.9,17z
		 M30.8,29c0-0.1-0.1-0.3-0.1-0.4c-0.5,0-1-0.1-1.4,0c-1.9,0.8-3.8,1.7-5.5,2.7c-0.9,0.5-1.6,1.4-2.6,2.3c0.7,0.1,1,0.2,1.2,0.2
		c2.1,0,4.2,0,6.3,0c1.4,0,2.8,0.1,4.1,0c0.4,0,1-0.5,1-0.7c0.1-2.9,0.1-5.9,0-8.8c0-0.4-0.5-0.8-0.7-1.3c-0.2,0.1-0.4,0.1-0.6,0.2
		c0,2.7,0,5.4,0,8c0,1-0.5,1.3-1.4,1.3c-2.2,0-4.5,0-6.8,0C26.6,31.3,28.7,30.1,30.8,29z M33.1,22.7c0.2,0,0.4-0.1,0.5-0.1
		c0.1-1,0.2-2,0.2-3c0-3.2-0.1-6.5,0-9.7c0-1-0.3-1.3-1.3-1.3c-2.3,0-4.6,0-6.9,0c-0.3,0-0.7,0.2-1,0.2c2.5,1.5,5.2,0.7,7.9,1.1
		c0,0.4,0,0.8,0,1.1c0,3.1-0.1,6.3,0,9.4C32.5,21.2,32.8,22,33.1,22.7z M9.6,21c-0.2,0-0.4,0-0.7,0c-0.1,0.5-0.3,0.9-0.3,1.4
		c-0.1,3.3,0,6.6-0.1,9.9c0,1.2,0.5,1.6,1.6,1.6c3.2,0,6.4,0,9.5,0c0.4,0,0.8-0.2,1.2-0.3c0-0.2,0-0.3,0-0.5
		c-3.6-0.6-7.3-0.4-11.1-0.4c0-2.1,0-4,0-6C9.7,24.9,9.6,23,9.6,21z M21.7,9.7c-0.1,0.2-0.1,0.4-0.2,0.5c2.7,1.5,5.5,2.9,8.2,4.4
		c0.5,0.3,1,0.4,1,1.2c-0.1,3.7-0.2,7.4-0.2,11.1c0,0.4,0.4,0.8,0.6,1.2c0.2-0.4,0.6-0.8,0.6-1.1c0.1-3.3,0-6.6,0.1-9.9
		c0-1.8-0.6-3-2.3-3.7c-1.4-0.6-2.6-1.5-4-2.1C24.2,10.7,23,10.2,21.7,9.7z M10.8,13.9c1.6-0.8,3.1-1.5,4.5-2.2
		c0.2-0.1,0.4-0.5,0.5-0.8c-0.3-0.1-0.5-0.4-0.8-0.4c-1.3,0-2.5,0.1-3.8,0.2c-0.2,0-0.4,0.3-0.6,0.5c0.2,0.1,0.4,0.4,0.7,0.4
		c0.4,0,0.8-0.1,1.3-0.1C12.1,12.4,10.4,12.1,10.8,13.9z M30.8,11.8c-1.6,0.1-2.7-1.4-4.4-0.7c1.6,0.9,3.3,1.8,4.9,2.7
		c0.1-0.1,0.3-0.2,0.4-0.3c-0.1-1-0.1-2-0.5-2.8c-0.1-0.3-1.2-0.1-1.9-0.1c0,0.1,0,0.2,0,0.3C29.8,11.2,30.3,11.5,30.8,11.8z
		 M11.9,29.4c-0.1,0.1-0.2,0.2-0.3,0.3c0.1,0.4,0.2,0.8,0.3,1.1c-0.1,0-0.2,0.1-0.3,0.1c-0.3-0.5-0.5-1.1-0.8-1.6
		c-0.1,0-0.2,0-0.3,0.1c0,0.5-0.2,1.1-0.1,1.5c0.1,0.3,0.4,0.9,0.7,0.9c1.1,0.1,2.2,0,3.3,0c0-0.1,0.1-0.2,0.1-0.3
		C13.6,30.8,12.7,30.1,11.9,29.4z M27.7,31.6c0,0.1,0.1,0.2,0.1,0.3c1.1,0.1,2.2,0.1,3.4,0.2c0.2,0,0.4-0.3,0.6-0.4
		c-0.2-0.2-0.3-0.4-0.5-0.6c-0.2-0.1-0.4-0.1-0.7-0.2c0.4-0.5,0.7-0.9,1-1.3c-0.1-0.1-0.3-0.3-0.4-0.4C30,30,28.9,30.8,27.7,31.6z
		 M28.9,15.1c-1.4-0.8-2.7-1.5-3.9-2.2C25.7,14.9,27.9,16,28.9,15.1z M21.2,8.9c0,0.1,0,0.3,0,0.4c0.9,0,1.7,0,2.6,0
		c0-0.1,0-0.3,0-0.4C23,8.9,22.1,8.9,21.2,8.9z M20.8,32.8c0.3-0.1,0.5-0.1,0.8-0.2c-0.2-0.6-0.3-1.2-0.5-1.8
		c-0.2,0.1-0.7,0.2-0.7,0.3C20.5,31.7,20.7,32.3,20.8,32.8z M11.8,15.4c-0.1,0.1-0.2,0.2-0.3,0.4c0.4,0.3,0.7,0.7,1.1,1
		c0.2,0.1,0.6,0,0.9,0c-0.1-0.3-0.1-0.7-0.3-0.8C12.8,15.7,12.3,15.6,11.8,15.4z"/>
	<path class="st1" d="M21.4,13.3c1-0.4,1.8-1.5,3.4-1.1c-1,0.8-1.8,1.4-2.4,1.8c1.9,1,3.7,2,5.5,3l0,0c3.3,2.6,1.6,8.4-1,10.7
		c-3,2.6-6.3,2.6-9.9,3c1,0.6,1.8,1.1,2.7,1.6c-0.1,0.1-0.2,0.3-0.2,0.4c-3.2-0.3-5.6-2.3-8.1-4.1c0-0.1,0-0.3,0.1-0.4
		c0.5,0,1.1,0.1,1.3,0.1c-0.2-2-0.3-4-0.7-6c-0.7-3.3,3.6-8,7.2-7.8C20.2,14.5,21,14.2,21.4,13.3L21.4,13.3z M14,27.3
		c0.6,0.5,1.1,1.3,1.8,1.5c1.4,0.3,2.9,0.4,4.3,0.4c3.4-0.2,6.2-1.4,7.8-4.7c1.3-2.7,1-4.5-1.2-6.6c-1.4-1.4-3.3-1.6-5-2.2
		c-0.2-0.1-0.7,0.2-0.8,0.5c-0.2,0.4-0.1,0.9-0.2,1.5c0.8-0.2,1.3-0.5,1.8-0.6c0.4-0.1,0.7,0,1.1,0.1c-0.2,0.4-0.3,0.9-0.6,1
		c-1.6,0.9-3.3,1-5,0.4c-0.5-0.2-0.9-0.8-1.3-1.2c0.1-0.1,0.2-0.2,0.2-0.3c0.9,0.2,1.8,0.4,2.8,0.6c0-0.9,0-1.6,0-2.3
		c-3.4,0.6-6.4,3.5-6.4,6.2c1,0,2.1,0,3.1,0c1.2,0,1.7,0.5,1.6,1.7C18,25.3,16.8,26.5,14,27.3z M16.9,22.5c-1.2,0-2.4,0-3.5,0
		c-0.1,1.9,0.4,3,1.3,3.1C15.9,25.6,16.7,24.5,16.9,22.5z"/>
	<path class="st1" d="M30.8,29c-2.1,1.1-4.2,2.3-6.3,3.5c2.3,0,4.6,0,6.8,0c0.9,0,1.4-0.3,1.4-1.3c-0.1-2.7,0-5.4,0-8
		c0.2-0.1,0.4-0.1,0.6-0.2c0.2,0.4,0.7,0.8,0.7,1.3c0.1,2.9,0,5.9,0,8.8c0,0.3-0.7,0.7-1,0.7c-1.4,0.1-2.8,0-4.1,0
		c-2.1,0-4.2,0-6.3,0c-0.3,0-0.6-0.1-1.2-0.2c1-0.9,1.7-1.8,2.6-2.3c1.8-1,3.7-1.8,5.5-2.7c0.4-0.2,0.9,0,1.4,0
		C30.7,28.7,30.7,28.8,30.8,29z"/>
	<path class="st1" d="M15.2,14c-0.8,0.3-1.6,0.6-2.4,0.8c-0.6,0.1-1.2,0.2-1.8,0.3c0,0,0,0,0,0c0.8-0.5,1.5-1.1,2.3-1.6
		c2.1-1.1,4.2-2.2,6.1-3.5c-1.8,0-3.5,0-5.3,0c-1.1,0-2.3,0-3.4-0.1c-0.8,0-1.1,0.2-1.1,1.1c0,2.4-0.1,4.9-0.1,7.3
		c0,0.7-0.2,1.3-0.3,2c-0.1,0-0.3,0-0.4,0c-0.1-0.5-0.3-0.9-0.3-1.4c0-3.1,0-6.3,0.1-9.4c0-0.3,0.7-0.9,1-0.9c3.2-0.1,6.4,0,9.5-0.1
		c1.3-0.1,1.1,1.1,1.7,1.5c-0.3,0.4-0.6,0.8-0.9,1.1c-1.5,1-3,2-4.5,2.9C15.4,13.9,15.3,13.9,15.2,14z"/>
	<path class="st1" d="M33.1,22.7c-0.2-0.7-0.6-1.5-0.6-2.2c-0.1-3.1,0-6.3,0-9.4c0-0.3,0-0.7,0-1.1c-2.6-0.3-5.4,0.4-7.9-1.1
		c0.3-0.1,0.7-0.2,1-0.2c2.3,0,4.6,0,6.9,0c0.9,0,1.3,0.3,1.3,1.3c-0.1,3.2,0,6.5,0,9.7c0,1-0.1,2-0.2,3
		C33.4,22.6,33.2,22.7,33.1,22.7z"/>
	<path class="st1" d="M9.6,21c0,1.9,0.1,3.8,0.1,5.8c0,1.9,0,3.8,0,6c3.8,0,7.5-0.3,11.1,0.4c0,0.2,0,0.3,0,0.5
		c-0.4,0.1-0.8,0.3-1.2,0.3c-3.2,0-6.4,0-9.5,0c-1.1,0-1.7-0.3-1.6-1.6c0.1-3.3,0.1-6.6,0.1-9.9c0-0.5,0.2-0.9,0.3-1.4
		C9.1,21,9.4,21,9.6,21z"/>
	<path class="st1" d="M21.7,9.7c1.2,0.5,2.5,1,3.7,1.5c1.3,0.7,2.6,1.6,4,2.1c1.7,0.7,2.4,1.9,2.3,3.7c0,3.3,0,6.6-0.1,9.9
		c0,0.4-0.4,0.8-0.6,1.1c-0.2-0.4-0.6-0.8-0.6-1.2c0-3.7,0.1-7.4,0.2-11.1c0-0.8-0.4-0.9-1-1.2c-2.7-1.5-5.5-2.9-8.2-4.4
		C21.6,10.1,21.6,9.9,21.7,9.7z"/>
	<path class="st1" d="M11.1,15c0.1,1.6,0.3,3.2,0.4,4.7c0.1,2.3,0,4.7,0,7c0,0.5-0.3,1-0.5,1.5c-0.1,0-0.3,0-0.4-0.1
		c-0.1-0.3-0.2-0.6-0.2-0.9c0-3.7,0-7.4,0.1-11.1C10.5,15.8,10.9,15.4,11.1,15C11.1,15,11.1,15,11.1,15z"/>
	<path class="st1" d="M10.8,13.9c-0.4-1.8,1.3-1.5,1.8-2.4c-0.5,0-0.9,0.1-1.3,0.1c-0.2,0-0.4-0.3-0.7-0.4c0.2-0.2,0.4-0.5,0.6-0.5
		c1.2-0.1,2.5-0.2,3.8-0.2c0.3,0,0.5,0.3,0.8,0.4c-0.2,0.3-0.3,0.7-0.5,0.8C13.9,12.4,12.4,13.1,10.8,13.9z"/>
	<path class="st1" d="M30.8,11.8c-0.5-0.3-1-0.6-1.5-0.9c0-0.1,0-0.2,0-0.3c0.7,0,1.8-0.1,1.9,0.1c0.4,0.9,0.4,1.9,0.5,2.8
		c-0.1,0.1-0.3,0.2-0.4,0.3C29.7,12.9,28,12,26.4,11C28.1,10.3,29.2,11.9,30.8,11.8z"/>
	<path class="st1" d="M15.2,14c0.1,0,0.2,0,0.3-0.1c1.5-0.7,3-1.5,4.8-2.3c-0.2,0.6-0.2,1.1-0.4,1.2c-1.8,0.9-3.6,1.8-5.4,2.7
		c-0.1,0-0.2-0.1-0.6-0.2C14.4,14.8,14.8,14.4,15.2,14z"/>
	<path class="st1" d="M11.9,29.4c0.9,0.7,1.7,1.5,2.6,2.2c0,0.1-0.1,0.2-0.1,0.3c-1.1,0-2.2,0.1-3.3,0c-0.3,0-0.6-0.5-0.7-0.9
		c-0.1-0.5,0-1,0.1-1.5c0.1,0,0.2,0,0.3-0.1c0.3,0.5,0.5,1.1,0.8,1.6c0.1,0,0.2-0.1,0.3-0.1c-0.1-0.4-0.2-0.8-0.3-1.1
		C11.7,29.6,11.8,29.5,11.9,29.4z"/>
	<path class="st1" d="M27.7,31.6c1.2-0.8,2.3-1.6,3.5-2.4c0.1,0.1,0.3,0.3,0.4,0.4c-0.3,0.4-0.6,0.8-1,1.3c0.2,0.1,0.5,0,0.7,0.2
		c0.2,0.1,0.3,0.4,0.5,0.6c-0.2,0.1-0.4,0.4-0.6,0.4c-1.1,0-2.2-0.1-3.4-0.2C27.8,31.8,27.7,31.7,27.7,31.6z"/>
	<path class="st1" d="M28.9,15.1c-1,0.9-3.2-0.3-3.9-2.2C26.2,13.6,27.5,14.3,28.9,15.1z"/>
	<path class="st1" d="M27.9,17c0.4-1,1.3-1.5,2.4-1.8C29.9,16.8,29,17.4,27.9,17C27.9,17,27.9,17,27.9,17z"/>
	<path class="st1" d="M21.4,13.2c-0.2-0.1-0.7-0.1-0.7-0.2c0-0.7,0.1-1.5,0.3-2.2C21.9,11.6,21.5,12.4,21.4,13.2
		C21.4,13.3,21.4,13.2,21.4,13.2z"/>
	<path class="st1" d="M21.2,8.9c0.9,0,1.7,0,2.6,0c0,0.1,0,0.3,0,0.4c-0.9,0-1.7,0-2.6,0C21.3,9.2,21.2,9,21.2,8.9z"/>
	<path class="st1" d="M20.8,32.8c-0.1-0.6-0.3-1.1-0.3-1.7c0-0.1,0.4-0.2,0.7-0.3c0.2,0.6,0.3,1.2,0.5,1.8
		C21.3,32.7,21.1,32.8,20.8,32.8z"/>
	<path class="st1" d="M11.8,15.4c0.4,0.2,0.9,0.3,1.3,0.5c0.2,0.1,0.2,0.5,0.3,0.8c-0.3,0-0.7,0.2-0.9,0c-0.4-0.3-0.7-0.7-1.1-1
		C11.6,15.7,11.7,15.5,11.8,15.4z"/>
	<path class="st0" d="M14,27.3c2.7-0.8,3.9-2,4.1-4.1c0.1-1.2-0.3-1.7-1.6-1.7c-1,0-2.1,0-3.1,0c0-2.7,3-5.6,6.4-6.2
		c0,0.7,0,1.4,0,2.3c-1-0.2-1.9-0.4-2.8-0.6c-0.1,0.1-0.2,0.2-0.2,0.3c0.4,0.4,0.8,1,1.3,1.2c1.7,0.6,3.4,0.5,5-0.4
		c0.3-0.2,0.4-0.7,0.6-1c-0.4,0-0.8-0.1-1.1-0.1c-0.6,0.1-1.1,0.3-1.8,0.6c0.1-0.7,0.1-1.1,0.2-1.5c0.1-0.2,0.6-0.6,0.8-0.5
		c1.7,0.6,3.6,0.8,5,2.2c2.2,2.1,2.5,3.9,1.2,6.6c-1.6,3.3-4.4,4.5-7.8,4.7c-1.4,0.1-2.9-0.1-4.3-0.4C15.2,28.6,14.6,27.8,14,27.3z
		 M27.7,21.2c-1.5,0-3-0.1-4.4,0c-2,0.1-2.6,1-2.1,3c0.1,0.5,0.4,0.9,0.6,1.4c0.8,1.3,1.8,1.6,3.2,1.1C27,26,28,24,27.7,21.2z"/>
	<path class="st0" d="M16.9,22.5c-0.2,2-1,3.1-2.2,3.1c-0.9,0-1.4-1.2-1.3-3.1C14.5,22.5,15.7,22.5,16.9,22.5z"/>
	<path class="st1" d="M27.7,21.2C28,24,27,26,25.1,26.6c-1.5,0.5-2.4,0.3-3.2-1.1c-0.3-0.4-0.5-0.9-0.6-1.4c-0.6-2,0-2.9,2.1-3
		C24.8,21.1,26.2,21.2,27.7,21.2z M26.4,22.5c-1.3-0.1-2.7-0.2-4-0.2c-0.2,1.7,0.6,3.3,1.6,3.4C25.3,25.7,26.4,24.2,26.4,22.5z"/>
	<path class="st0" d="M26.4,22.5c0.1,1.8-1.1,3.2-2.4,3.1c-1-0.1-1.8-1.7-1.6-3.4C23.7,22.3,25,22.4,26.4,22.5z"/>
</g>
</svg>
