<?xml version="1.0" encoding="utf-8"?>
<!-- Generator: Adobe Illustrator 22.1.0, SVG Export Plug-In . SVG Version: 6.00 Build 0)  -->
<svg version="1.1" id="图层_1" xmlns="http://www.w3.org/2000/svg" xmlns:xlink="http://www.w3.org/1999/xlink" x="0px" y="0px"
	 viewBox="0 0 42.5 42.5" style="enable-background:new 0 0 42.5 42.5;" xml:space="preserve">
<style type="text/css">
	.st0{fill:#9C3A3A;}
	.st1{fill:#FFFFFF;}
</style>
<g>
	<path class="st0" d="M42.2,32.3c0,2.7,0,5.3,0,8c0,1.5-0.5,2.3-2.2,2.2c-3.5-0.1-7.2-0.3-10.7-0.3c-2.2,0-4.3,0.1-6.5,0.1
		c-5,0-10.2-0.1-15.2-0.1c-1.8,0-3.5,0.1-5.3,0.3c-1.4,0.1-2.2-0.4-2-1.9c0.1-3.9,0.3-7.7,0.3-11.5c0-4.2-0.4-8.3-0.4-12.5
		c0-2,0.1-4.1,0.3-6.1c0.1-2.7,0.1-5.6,0.3-8.3c0-1.4,0.8-2,2-2C4.6,0,6.4,0,8.3,0c3.3,0,6.7,0.1,9.9,0.1C25.5,0.3,33,0.3,40.3,0.4
		c1.9,0,2.2,0.4,2.2,2.3c-0.1,5.3-0.3,10.6-0.3,15.9C42.1,23.2,42.1,27.7,42.2,32.3L42.2,32.3z M7.5,12.8c0.8-0.1,1.6-0.1,2.4-0.4
		c1.1-0.3,2.2-0.7,3.3-1.1c-0.5,0.5-1.1,1.1-1.8,1.8c0.4,0.1,0.7,0.3,0.8,0.3c2.4-1.2,4.9-2.3,7.3-3.7c0.3-0.1,0.3-0.8,0.5-1.6
		c-2.4,1.2-4.5,2.2-6.5,3.1c2-1.4,4.1-2.6,6.1-3.9c0.5-0.4,0.8-1,1.2-1.5c-0.8-0.5-0.5-2-2.3-2c-4.3,0.1-8.7,0-12.9,0.1
		C5.1,3.8,4.3,4.6,4.3,5c-0.1,4.2-0.1,8.6-0.1,12.8c0,0.7,0.3,1.2,0.4,1.9c0.1,0,0.4,0,0.5,0c0.1-1,0.4-1.8,0.4-2.7
		c0.1-3.3,0.1-6.7,0.1-9.9c0-1.2,0.4-1.5,1.5-1.5c1.5,0.1,3.1,0.1,4.6,0.1c2.4,0,4.8,0,7.2,0c-2.7,1.8-5.6,3.3-8.3,4.8
		C9.5,11.3,8.5,12.1,7.5,12.8c-0.3,0.5-0.8,1.1-0.8,1.6c-0.1,5-0.1,10-0.1,15.1c0,0.4,0.1,0.8,0.3,1.2c0.1,0,0.4,0,0.5,0.1
		c0.3-0.7,0.7-1.4,0.7-2c0.1-3.1,0.1-6.4,0-9.5C7.9,17,7.6,14.9,7.5,12.8z M30.3,15.5c-2.4-1.4-5-2.7-7.5-4.1
		c0.8-0.7,1.9-1.4,3.3-2.4c-2.2-0.5-3.3,1-4.6,1.5c0.3-1.1,0.7-2.3-0.5-3.3c-0.3,1-0.4,2-0.4,3c0,0.1,0.7,0.1,1,0.3
		c-0.5,1.2-1.6,1.6-3,1.6c-4.9-0.1-10.7,6.1-9.8,10.6c0.5,2.7,0.7,5.6,1,8.1c-0.3,0-1-0.1-1.8-0.1c0,0.1,0,0.4-0.1,0.5
		c3.4,2.3,6.7,5,11,5.6c0.1-0.1,0.3-0.4,0.3-0.5c-1.1-0.7-2.3-1.4-3.7-2.2c4.9-0.5,9.4-0.5,13.4-4.1C32.6,26.9,34.9,18.9,30.3,15.5
		c1.4,0.5,2.6-0.3,3.3-2.4C32,13.4,30.9,14,30.3,15.5z M34.2,31.8c0-0.1-0.1-0.4-0.1-0.5c-0.7,0-1.4-0.1-1.9,0
		c-2.6,1.1-5.2,2.3-7.5,3.7c-1.2,0.7-2.2,1.9-3.5,3.1c1,0.1,1.4,0.3,1.6,0.3c2.9,0,5.7,0,8.6,0c1.9,0,3.8,0.1,5.6,0
		c0.5,0,1.4-0.7,1.4-1c0.1-3.9,0.1-8,0-11.9c0-0.5-0.7-1.1-1-1.8c-0.3,0.1-0.5,0.1-0.8,0.3c0,3.7,0,7.3,0,10.9
		c0,1.4-0.7,1.8-1.9,1.8c-3,0-6.1,0-9.2,0C28.5,34.9,31.3,33.3,34.2,31.8z M37.3,23.2c0.3,0,0.5-0.1,0.7-0.1
		c0.1-1.4,0.3-2.7,0.3-4.1c0-4.3-0.1-8.8,0-13.2c0-1.4-0.4-1.8-1.8-1.8c-3.1,0-6.2,0-9.4,0c-0.4,0-1,0.3-1.4,0.3
		c3.4,2,7.1,1,10.7,1.5c0,0.5,0,1.1,0,1.5c0,4.2-0.1,8.6,0,12.8C36.5,21.2,36.9,22.3,37.3,23.2z M5.4,20.9c-0.3,0-0.5,0-1,0
		c-0.1,0.7-0.4,1.2-0.4,1.9c-0.1,4.5,0,9-0.1,13.4c0,1.6,0.7,2.2,2.2,2.2c4.3,0,8.7,0,12.9,0c0.5,0,1.1-0.3,1.6-0.4
		c0-0.3,0-0.4,0-0.7c-4.9-0.8-9.9-0.5-15.1-0.5c0-2.9,0-5.4,0-8.1C5.5,26.2,5.4,23.6,5.4,20.9z M21.8,5.6c-0.1,0.3-0.1,0.5-0.3,0.7
		c3.7,2,7.5,3.9,11.1,6c0.7,0.4,1.4,0.5,1.4,1.6c-0.1,5-0.3,10-0.3,15.1c0,0.5,0.5,1.1,0.8,1.6c0.3-0.5,0.8-1.1,0.8-1.5
		c0.1-4.5,0-9,0.1-13.4c0-2.4-0.8-4.1-3.1-5c-1.9-0.8-3.5-2-5.4-2.9C25.2,6.9,23.6,6.2,21.8,5.6z M7,11.3c2.2-1.1,4.2-2,6.1-3
		c0.3-0.1,0.5-0.7,0.7-1.1c-0.4-0.1-0.7-0.5-1.1-0.5c-1.8,0-3.4,0.1-5.2,0.3C7.3,6.9,7,7.3,6.8,7.6c0.3,0.1,0.5,0.5,1,0.5
		C8.3,8.1,8.8,8,9.5,8C8.8,9.2,6.5,8.8,7,11.3z M34.2,8.4c-2.2,0.1-3.7-1.9-6-1c2.2,1.2,4.5,2.4,6.7,3.7c0.1-0.1,0.4-0.3,0.5-0.4
		c-0.1-1.4-0.1-2.7-0.7-3.8c-0.1-0.4-1.6-0.1-2.6-0.1c0,0.1,0,0.3,0,0.4C32.8,7.6,33.5,8,34.2,8.4z M8.5,32.3
		c-0.1,0.1-0.3,0.3-0.4,0.4c0.1,0.5,0.3,1.1,0.4,1.5c-0.1,0-0.3,0.1-0.4,0.1c-0.4-0.7-0.7-1.5-1.1-2.2c-0.1,0-0.3,0-0.4,0.1
		c0,0.7-0.3,1.5-0.1,2c0.1,0.4,0.5,1.2,1,1.2c1.5,0.1,3,0,4.5,0c0-0.1,0.1-0.3,0.1-0.4C10.8,34.2,9.6,33.3,8.5,32.3z M30,35.3
		c0,0.1,0.1,0.3,0.1,0.4c1.5,0.1,3,0.1,4.6,0.3c0.3,0,0.5-0.4,0.8-0.5c-0.3-0.3-0.4-0.5-0.7-0.8c-0.3-0.1-0.5-0.1-1-0.3
		c0.5-0.7,1-1.2,1.4-1.8c-0.1-0.1-0.4-0.4-0.5-0.5C33.1,33.1,31.6,34.2,30,35.3z M31.6,12.9c-1.9-1.1-3.7-2-5.3-3
		C27.3,12.6,30.3,14.1,31.6,12.9z M21.2,4.5c0,0.1,0,0.4,0,0.5c1.2,0,2.3,0,3.5,0c0-0.1,0-0.4,0-0.5C23.6,4.5,22.4,4.5,21.2,4.5z
		 M20.6,36.9c0.4-0.1,0.7-0.1,1.1-0.3c-0.3-0.8-0.4-1.6-0.7-2.4c-0.3,0.1-1,0.3-1,0.4C20.2,35.4,20.5,36.3,20.6,36.9z M8.4,13.3
		c-0.1,0.1-0.3,0.3-0.4,0.5c0.5,0.4,1,1,1.5,1.4c0.3,0.1,0.8,0,1.2,0c-0.1-0.4-0.1-1-0.4-1.1C9.8,13.7,9.1,13.6,8.4,13.3z"/>
	<path class="st1" d="M21.4,10.5c1.4-0.5,2.4-2,4.6-1.5c-1.4,1.1-2.4,1.9-3.3,2.4c2.6,1.4,5,2.7,7.5,4.1l0,0
		c4.5,3.5,2.2,11.4-1.4,14.5c-4.1,3.5-8.6,3.5-13.4,4.1c1.4,0.8,2.4,1.5,3.7,2.2c-0.1,0.1-0.3,0.4-0.3,0.5c-4.3-0.4-7.6-3.1-11-5.6
		c0-0.1,0-0.4,0.1-0.5c0.7,0,1.5,0.1,1.8,0.1c-0.3-2.7-0.4-5.4-1-8.1c-1-4.5,4.9-10.9,9.8-10.6C19.8,12.1,20.9,11.7,21.4,10.5
		L21.4,10.5z M11.4,29.5c0.8,0.7,1.5,1.8,2.4,2c1.9,0.4,3.9,0.5,5.8,0.5c4.6-0.3,8.4-1.9,10.6-6.4c1.8-3.7,1.4-6.1-1.6-9
		c-1.9-1.9-4.5-2.2-6.8-3c-0.3-0.1-1,0.3-1.1,0.7c-0.3,0.5-0.1,1.2-0.3,2c1.1-0.3,1.8-0.7,2.4-0.8c0.5-0.1,1,0,1.5,0.1
		c-0.3,0.5-0.4,1.2-0.8,1.4c-2.2,1.2-4.5,1.4-6.8,0.5c-0.7-0.3-1.2-1.1-1.8-1.6c0.1-0.1,0.3-0.3,0.3-0.4c1.2,0.3,2.4,0.5,3.8,0.8
		c0-1.2,0-2.2,0-3.1c-4.6,0.8-8.7,4.8-8.7,8.4c1.4,0,2.9,0,4.2,0c1.6,0,2.3,0.7,2.2,2.3C16.8,26.7,15.2,28.4,11.4,29.5z M15.3,22.9
		c-1.6,0-3.3,0-4.8,0c-0.1,2.6,0.5,4.1,1.8,4.2C14,27.2,15.1,25.7,15.3,22.9z"/>
	<path class="st1" d="M34.2,31.8c-2.9,1.5-5.7,3.1-8.6,4.8c3.1,0,6.2,0,9.2,0c1.2,0,1.9-0.4,1.9-1.8c-0.1-3.7,0-7.3,0-10.9
		c0.3-0.1,0.5-0.1,0.8-0.3c0.3,0.5,1,1.1,1,1.8c0.1,3.9,0,8,0,11.9c0,0.4-1,1-1.4,1c-1.9,0.1-3.8,0-5.6,0c-2.9,0-5.7,0-8.6,0
		c-0.4,0-0.8-0.1-1.6-0.3c1.4-1.2,2.3-2.4,3.5-3.1c2.4-1.4,5-2.4,7.5-3.7c0.5-0.3,1.2,0,1.9,0C34.1,31.4,34.1,31.5,34.2,31.8z"/>
	<path class="st1" d="M13,11.4c-1.1,0.4-2.2,0.8-3.3,1.1c-0.8,0.1-1.6,0.3-2.4,0.4l0,0c1.1-0.7,2-1.5,3.1-2.2c2.9-1.5,5.7-3,8.3-4.8
		c-2.4,0-4.8,0-7.2,0C10,6,8.4,6,6.9,5.8c-1.1,0-1.5,0.3-1.5,1.5c0,3.3-0.1,6.7-0.1,9.9c0,1-0.3,1.8-0.4,2.7c-0.1,0-0.4,0-0.5,0
		c-0.1-0.7-0.4-1.2-0.4-1.9c0-4.2,0-8.6,0.1-12.8c0-0.4,1-1.2,1.4-1.2c4.3-0.1,8.7,0,12.9-0.1c1.8-0.1,1.5,1.5,2.3,2
		c-0.4,0.5-0.8,1.1-1.2,1.5c-2,1.4-4.1,2.7-6.1,3.9C13.3,11.3,13.2,11.3,13,11.4z"/>
	<path class="st1" d="M37.3,23.2c-0.3-1-0.8-2-0.8-3c-0.1-4.2,0-8.6,0-12.8c0-0.4,0-1,0-1.5C33,5.6,29.2,6.5,25.8,4.5
		c0.4-0.1,1-0.3,1.4-0.3c3.1,0,6.2,0,9.4,0c1.2,0,1.8,0.4,1.8,1.8c-0.1,4.3,0,8.8,0,13.2c0,1.4-0.1,2.7-0.3,4.1
		C37.7,23.1,37.5,23.2,37.3,23.2z"/>
	<path class="st1" d="M5.4,20.9c0,2.6,0.1,5.2,0.1,7.9c0,2.6,0,5.2,0,8.1c5.2,0,10.2-0.4,15.1,0.5c0,0.3,0,0.4,0,0.7
		c-0.5,0.1-1.1,0.4-1.6,0.4c-4.3,0-8.7,0-12.9,0c-1.5,0-2.3-0.4-2.2-2.2c0.1-4.5,0.1-9,0.1-13.4c0-0.7,0.3-1.2,0.4-1.9
		C4.7,20.9,5.1,20.9,5.4,20.9z"/>
	<path class="st1" d="M21.8,5.6c1.6,0.7,3.4,1.4,5,2c1.8,1,3.5,2.2,5.4,2.9c2.3,1,3.3,2.6,3.1,5c0,4.5,0,9-0.1,13.4
		c0,0.5-0.5,1.1-0.8,1.5c-0.3-0.5-0.8-1.1-0.8-1.6c0-5,0.1-10,0.3-15.1c0-1.1-0.5-1.2-1.4-1.6c-3.7-2-7.5-3.9-11.1-6
		C21.7,6.1,21.7,5.8,21.8,5.6z"/>
	<path class="st1" d="M7.5,12.8c0.1,2.2,0.4,4.3,0.5,6.4c0.1,3.1,0,6.4,0,9.5c0,0.7-0.4,1.4-0.7,2c-0.1,0-0.4,0-0.5-0.1
		c-0.1-0.4-0.3-0.8-0.3-1.2c0-5,0-10,0.1-15.1C6.6,13.8,7.2,13.3,7.5,12.8L7.5,12.8z"/>
	<path class="st1" d="M7,11.3C6.5,8.8,8.8,9.2,9.5,8C8.8,8,8.3,8.1,7.7,8.1c-0.3,0-0.5-0.4-1-0.5C7,7.3,7.3,6.9,7.6,6.9
		c1.6-0.1,3.4-0.3,5.2-0.3c0.4,0,0.7,0.4,1.1,0.5c-0.3,0.4-0.4,1-0.7,1.1C11.3,9.2,9.2,10.2,7,11.3z"/>
	<path class="st1" d="M34.2,8.4c-0.7-0.4-1.4-0.8-2-1.2c0-0.1,0-0.3,0-0.4c1,0,2.4-0.1,2.6,0.1c0.5,1.2,0.5,2.6,0.7,3.8
		c-0.1,0.1-0.4,0.3-0.5,0.4c-2.2-1.2-4.5-2.4-6.7-3.8C30.5,6.4,32,8.6,34.2,8.4z"/>
	<path class="st1" d="M13,11.4c0.1,0,0.3,0,0.4-0.1c2-1,4.1-2,6.5-3.1c-0.3,0.8-0.3,1.5-0.5,1.6c-2.4,1.2-4.9,2.4-7.3,3.7
		c-0.1,0-0.3-0.1-0.8-0.3C11.9,12.5,12.5,11.9,13,11.4z"/>
	<path class="st1" d="M8.5,32.3c1.2,1,2.3,2,3.5,3c0,0.1-0.1,0.3-0.1,0.4c-1.5,0-3,0.1-4.5,0c-0.4,0-0.8-0.7-1-1.2
		c-0.1-0.7,0-1.4,0.1-2c0.1,0,0.3,0,0.4-0.1c0.4,0.7,0.7,1.5,1.1,2.2c0.1,0,0.3-0.1,0.4-0.1c-0.1-0.5-0.3-1.1-0.4-1.5
		C8.3,32.6,8.4,32.4,8.5,32.3z"/>
	<path class="st1" d="M30,35.3c1.6-1.1,3.1-2.2,4.8-3.3c0.1,0.1,0.4,0.4,0.5,0.5c-0.4,0.5-0.8,1.1-1.4,1.8c0.3,0.1,0.7,0,1,0.3
		c0.3,0.1,0.4,0.5,0.7,0.8C35.3,35.6,35,36,34.7,36c-1.5,0-3-0.1-4.6-0.3C30.1,35.6,30,35.4,30,35.3z"/>
	<path class="st1" d="M31.6,12.9c-1.4,1.2-4.3-0.4-5.3-3C28,10.9,29.7,11.8,31.6,12.9z"/>
	<path class="st1" d="M30.3,15.5c0.5-1.4,1.8-2,3.3-2.4C33,15.2,31.8,16,30.3,15.5L30.3,15.5z"/>
	<path class="st1" d="M21.4,10.3c-0.3-0.1-1-0.1-1-0.3c0-1,0.1-2,0.4-3C22.1,8.1,21.6,9.2,21.4,10.3C21.4,10.5,21.4,10.3,21.4,10.3z
		"/>
	<path class="st1" d="M21.2,4.5c1.2,0,2.3,0,3.5,0c0,0.1,0,0.4,0,0.5c-1.2,0-2.3,0-3.5,0C21.3,4.9,21.2,4.6,21.2,4.5z"/>
	<path class="st1" d="M20.6,36.9c-0.1-0.8-0.4-1.5-0.4-2.3c0-0.1,0.5-0.3,1-0.4c0.3,0.8,0.4,1.6,0.7,2.4
		C21.3,36.8,21,36.9,20.6,36.9z"/>
	<path class="st1" d="M8.4,13.3c0.5,0.3,1.2,0.4,1.8,0.7c0.3,0.1,0.3,0.7,0.4,1.1c-0.4,0-1,0.3-1.2,0c-0.5-0.4-1-1-1.5-1.4
		C8.1,13.7,8.3,13.4,8.4,13.3z"/>
	<path class="st0" d="M11.4,29.5c3.7-1.1,5.3-2.7,5.6-5.6c0.1-1.6-0.4-2.3-2.2-2.3c-1.4,0-2.9,0-4.2,0c0-3.7,4.1-7.6,8.7-8.4
		c0,1,0,1.9,0,3.1c-1.4-0.3-2.6-0.5-3.8-0.8c-0.1,0.1-0.3,0.3-0.3,0.4c0.5,0.5,1.1,1.4,1.8,1.6c2.3,0.8,4.6,0.7,6.8-0.5
		c0.4-0.3,0.5-1,0.8-1.4c-0.5,0-1.1-0.1-1.5-0.1c-0.8,0.1-1.5,0.4-2.4,0.8c0.1-1,0.1-1.5,0.3-2c0.1-0.3,0.8-0.8,1.1-0.7
		c2.3,0.8,4.9,1.1,6.8,3c3,2.9,3.4,5.3,1.6,9c-2.2,4.5-6,6.1-10.6,6.4c-1.9,0.1-3.9-0.1-5.8-0.5C13,31.2,12.2,30.1,11.4,29.5z
		 M30,21.2c-2,0-4.1-0.1-6,0c-2.7,0.1-3.5,1.4-2.9,4.1c0.1,0.7,0.5,1.2,0.8,1.9c1.1,1.8,2.4,2.2,4.3,1.5C29,27.7,30.4,25,30,21.2z"
		/>
	<path class="st0" d="M15.3,22.9c-0.3,2.7-1.4,4.2-3,4.2c-1.2,0-1.9-1.6-1.8-4.2C12.1,22.9,13.7,22.9,15.3,22.9z"/>
	<path class="st1" d="M30,21.2c0.4,3.8-1,6.5-3.5,7.3c-2,0.7-3.3,0.4-4.3-1.5c-0.4-0.5-0.7-1.2-0.8-1.9c-0.8-2.7,0-3.9,2.9-4.1
		C26.1,21,28,21.2,30,21.2z M28.2,22.9c-1.8-0.1-3.7-0.3-5.4-0.3c-0.3,2.3,0.8,4.5,2.2,4.6C26.7,27.3,28.2,25.3,28.2,22.9z"/>
	<path class="st0" d="M28.2,22.9c0.1,2.4-1.5,4.3-3.3,4.2c-1.4-0.1-2.4-2.3-2.2-4.6C24.6,22.7,26.3,22.8,28.2,22.9z"/>
</g>
</svg>
